<svg xmlns="http://www.w3.org/2000/svg"><symbol id="instagram" viewBox="0 0 24 24"><path d="m7.444,1.077c-1.17.055-1.97.242-2.668.517-.723.282-1.336.66-1.946,1.272-.61.612-.985,1.225-1.265,1.95-.271.7-.454,1.5-.506,2.671-.052,1.171-.063,1.547-.057,4.535s.019,3.362.076,4.535c.056,1.17.242,1.969.517,2.668.282.723.66,1.336,1.272,1.946.612.61,1.225.985,1.951,1.265.7.27,1.5.455,2.671.506,1.171.051,1.548.063,4.534.057,2.986-.006,3.362-.019,4.536-.075s1.968-.243,2.667-.516c.723-.283,1.336-.66,1.946-1.272s.985-1.226,1.265-1.951c.271-.7.455-1.5.506-2.67.051-1.174.063-1.549.058-4.536s-.019-3.361-.075-4.534-.242-1.97-.516-2.669c-.283-.723-.66-1.335-1.272-1.946s-1.226-.986-1.951-1.265c-.7-.271-1.5-.455-2.671-.506s-1.548-.064-4.535-.058-3.361.018-4.535.076m.128,19.885c-1.073-.047-1.655-.225-2.043-.374-.514-.198-.88-.437-1.267-.82s-.624-.75-.825-1.263c-.151-.388-.332-.97-.382-2.042-.055-1.159-.066-1.507-.072-4.444s.005-3.284.056-4.444c.046-1.072.225-1.655.374-2.042.198-.515.436-.88.82-1.267s.75-.625,1.263-.825c.388-.151.969-.331,2.041-.382,1.16-.055,1.508-.066,4.444-.072,2.936-.006,3.285.005,4.445.056,1.072.047,1.655.224,2.042.374.514.198.88.436,1.267.82s.625.75.825,1.264c.152.387.332.968.382,2.041.055,1.16.068,1.508.073,4.444.005,2.936-.005,3.285-.056,4.444-.047,1.073-.225,1.655-.374,2.044-.198.514-.437.88-.821,1.266s-.75.624-1.263.825c-.387.151-.97.332-2.041.383-1.16.055-1.508.066-4.445.072s-3.284-.006-4.444-.056m8.967-14.841c.001.729.593,1.319,1.322,1.318s1.319-.593,1.318-1.322c-.001-.729-.593-1.319-1.322-1.318,0,0,0,0,0,0-.729.001-1.319.593-1.317,1.322m-10.188,5.89c.006,3.12,2.54,5.643,5.659,5.637s5.644-2.539,5.638-5.659-2.54-5.643-5.66-5.637-5.643,2.54-5.637,5.659m1.981-.004c-.004-2.025,1.634-3.67,3.66-3.674,2.025-.004,3.67,1.634,3.674,3.659.004,2.025-1.634,3.67-3.66,3.674-2.025.004-3.67-1.634-3.674-3.659h0" /></symbol><symbol id="tiktok" viewBox="0 0 24 24"><path d="m22,7.105v-.842c-1.101,0-2.126-.314-2.986-.851,0,0,0,0-.001-.001-1.235-.773-2.127-2.009-2.405-3.45h0c-.06-.312-.093-.632-.093-.96h-3.943l-.006,15.158c-.066,1.697-1.523,3.06-3.308,3.06-.555,0-1.077-.133-1.537-.365h0c-1.055-.533-1.777-1.593-1.777-2.814,0-1.753,1.487-3.18,3.314-3.18.341,0,.668.054.978.147v-2.965c-3.65.082-6.643,2.76-7.041,6.181.397-3.421,3.39-6.1,7.041-6.182v-.896c-.32-.042-.646-.068-.978-.068-4.002,0-7.257,3.123-7.257,6.962,0,2.354,1.226,4.438,3.096,5.699,0,0,.001.001.002.002,1.179.794,2.613,1.262,4.159,1.262,4.002,0,7.257-3.123,7.257-6.962v-7.686c1.546,1.065,3.441,1.692,5.486,1.692v-2.94h0Zm-8.285,10.013c-.066,1.697-1.523,3.06-3.308,3.06h0c-.204,0-.404-.018-.598-.052.194.034.394.052.598.052,1.785,0,3.242-1.362,3.308-3.06l.006-15.158h0l-.006,15.158Z" /></symbol><symbol id="facebook" viewBox="0 0 24 24"><path d="M23,12.04C23,5.943,18.075,1,12,1S1,5.943,1,12.04c0,5.178,3.551,9.522,8.343,10.715v-7.342H7.074V12.04h2.268v-1.454c0-3.758,1.694-5.5,5.37-5.5c0.697,0,1.899,0.137,2.391,0.274V8.42c-0.26-0.027-0.711-0.041-1.271-0.041c-1.804,0-2.501,0.686-2.501,2.469v1.193h3.593l-0.617,3.374h-2.976V23C18.779,22.34,23,17.685,23,12.04z"/></symbol><symbol id="yelp" viewBox="0 0 24 24"><path d="m12.225,16.062c.078.275.087.58.076.856,0,0-.046,1.197-.046,1.197-.022.673-.05,1.345-.085,2.019-.021.438-.034.811-.062,1.129-.006.06-.014.125-.017.179-.036.383-.091.64-.174.843-.051.137-.133.262-.239.366-.112.107-.245.19-.392.244-.075.026-.152.047-.23.065-.078.015-.156.025-.235.032-.085.008-.171.01-.256.005-.502-.028-.999-.121-1.476-.275-.574-.188-1.119-.431-1.618-.769-.07-.048-.136-.101-.198-.159-.058-.053-.113-.109-.165-.167-.05-.061-.096-.124-.14-.19-.081-.131-.134-.276-.154-.428-.018-.146-.003-.293.043-.433.062-.21.183-.445.397-.768.032-.045.067-.101.101-.151.178-.267.404-.568.665-.925.4-.553.804-1.097,1.213-1.64l.722-.969c.043-.038.077-.098.113-.143.143-.176.301-.352.488-.487.064-.047.132-.089.204-.124.046-.023.094-.042.143-.058.209-.064.434-.061.641.007.208.068.388.199.515.373.075.115.13.24.165.372Zm-3.324-1.181l1.038-.234c.022-.005.058-.013.102-.027.286-.075.532-.256.685-.504.153-.248.201-.545.134-.827-.002-.006-.003-.012-.004-.018-.034-.135-.094-.263-.176-.377-.116-.144-.26-.265-.424-.355-.193-.107-.394-.198-.602-.272l-1.138-.405c-.639-.232-1.278-.458-1.922-.678-.418-.145-.772-.273-1.08-.366-.058-.018-.122-.035-.174-.052-.372-.111-.634-.157-.855-.159-.148-.005-.295.021-.431.077-.142.06-.27.148-.375.26-.052.058-.101.118-.147.181-.043.064-.082.13-.118.198-.039.073-.073.149-.101.227-.211.609-.317,1.249-.311,1.892.004.582.02,1.328.347,1.834.079.13.185.242.311.329.233.157.469.178.714.195.367.026.722-.062,1.076-.142l3.449-.778h.003Zm1.201-13.812c-.26.035-.521.083-.78.143-.259.061-.515.127-.765.205-.815.261-1.962.739-2.156,1.656-.109.518.15,1.049.351,1.522.244.573.577,1.09.88,1.63.803,1.425,1.62,2.841,2.435,4.259.243.423.509.959.98,1.178.031.013.063.025.095.035.211.078.441.093.661.043.013-.003.026-.006.039-.009.203-.054.387-.162.532-.311.026-.024.051-.049.074-.075.325-.399.324-.993.354-1.479.098-1.623.201-3.247.283-4.871.031-.615.099-1.222.062-1.842-.031-.511-.035-1.099-.366-1.518-.584-.74-1.83-.679-2.679-.564Zm10.381,8.433c-.283-.581-.665-1.11-1.127-1.568-.06-.058-.124-.112-.192-.161-.063-.046-.128-.089-.195-.128-.069-.037-.14-.07-.213-.1-.144-.055-.298-.08-.453-.073-.148.008-.292.048-.423.116-.198.096-.412.25-.697.509-.039.038-.089.081-.133.122-.235.216-.497.482-.808.791-.481.474-.954.951-1.425,1.433l-.842.852c-.154.156-.295.324-.42.503-.107.151-.182.321-.222.5-.023.137-.02.278.01.414.001.006.003.012.004.018.066.282.243.528.491.686.249.158.55.215.841.16.046-.007.082-.014.104-.019l4.489-1.012c.354-.08.713-.153,1.031-.333.213-.121.416-.24.555-.481.074-.133.119-.279.132-.429.069-.597-.251-1.275-.508-1.799Zm-.274,8.061c-.151-.161-.364-.322-.701-.521-.049-.026-.106-.062-.158-.093-.28-.165-.618-.338-1.013-.547-.606-.325-1.213-.641-1.825-.955l-1.082-.56c-.056-.016-.113-.055-.166-.08-.208-.097-.428-.188-.657-.229-.079-.015-.159-.023-.239-.024-.052,0-.103.002-.155.009-.216.033-.417.131-.572.282-.156.15-.259.345-.295.556-.016.134-.011.27.015.402.053.281.181.559.314.802l.578,1.056c.321.596.647,1.188.98,1.779.215.385.394.715.562.988.032.051.068.107.095.154.204.328.368.535.534.684.108.102.237.179.378.227.149.048.306.065.462.05.079-.009.158-.022.236-.04.077-.02.152-.044.226-.072.08-.029.158-.064.233-.105.439-.24.844-.536,1.204-.88.432-.415.813-.867,1.11-1.384.041-.073.077-.149.107-.228.028-.072.052-.146.072-.221.018-.076.031-.153.04-.23.015-.152-.003-.305-.053-.45-.049-.139-.128-.265-.233-.37Z" /></symbol></svg>